<svg width="1019" height="619" viewBox="0 0 1019 619" xmlns="http://www.w3.org/2000/svg" xmlns:xlink="http://www.w3.org/1999/xlink" fill="none" overflow="hidden"><defs><clipPath id="clip0_2192_4071"><rect x="0" y="0" width="2115" height="673.408" fill="#FFFFFF" transform="matrix(-1 0 0 1 1019 0)"/></clipPath></defs><g clip-path="url(#clip0_2192_4071)"><path d="M881.698 624.318C878.512 624.318 875.929 621.735 875.929 618.549 875.929 615.362 878.512 612.779 881.698 612.779 884.885 612.779 887.468 615.362 887.468 618.549 887.468 621.735 884.885 624.318 881.698 624.318Z" fill="#FFDD00"/><path d="M881.705 566.509C880.725 566.509 879.93 565.715 879.93 564.734 879.93 563.754 880.725 562.959 881.705 562.959 882.686 562.959 883.48 563.754 883.48 564.734 883.48 565.715 882.686 566.509 881.705 566.509Z" fill="#FFDD00"/><path d="M820.362 625.925C816.283 625.925 812.976 622.618 812.976 618.539 812.976 614.459 816.283 611.152 820.362 611.152 824.441 611.152 827.748 614.459 827.748 618.539 827.748 622.618 824.441 625.925 820.362 625.925Z" fill="#FFDD00"/><path d="M820.359 564.818C820.321 564.818 820.291 564.788 820.291 564.751 820.291 564.714 820.321 564.684 820.359 564.684 820.396 564.684 820.426 564.714 820.426 564.751 820.426 564.788 820.396 564.818 820.359 564.818Z" fill="#FFDD00"/><path d="M759.05 618.829C758.89 618.829 758.761 618.7 758.761 618.54 758.761 618.38 758.89 618.25 759.05 618.25 759.21 618.25 759.34 618.38 759.34 618.54 759.34 618.7 759.21 618.829 759.05 618.829Z" fill="#FFDD00"/><path d="M697.719 619.492C697.178 619.492 696.74 619.054 696.74 618.514 696.74 617.973 697.178 617.535 697.719 617.535 698.259 617.535 698.697 617.973 698.697 618.514 698.697 619.054 698.259 619.492 697.719 619.492Z" fill="#FFDD00"/><path d="M697.724 569.153C695.29 569.153 693.317 567.18 693.317 564.746 693.317 562.313 695.29 560.34 697.724 560.34 700.157 560.34 702.13 562.313 702.13 564.746 702.13 567.18 700.157 569.153 697.724 569.153Z" fill="#FFDD00"/><path d="M697.712 521.395C691.934 521.395 687.251 516.711 687.251 510.934 687.251 505.156 691.934 500.473 697.712 500.473 703.489 500.473 708.173 505.156 708.173 510.934 708.173 516.711 703.489 521.395 697.712 521.395Z" fill="#FFDD00"/><path d="M697.717 355.947C694.198 355.947 691.345 353.094 691.345 349.575 691.345 346.056 694.198 343.203 697.717 343.203 701.236 343.203 704.089 346.056 704.089 349.575 704.089 353.094 701.236 355.947 697.717 355.947Z" fill="#FFDD00"/><path d="M636.376 643.603C622.528 643.603 611.301 632.377 611.301 618.528 611.301 604.68 622.528 593.453 636.376 593.453 650.225 593.453 661.451 604.68 661.451 618.528 661.451 632.377 650.225 643.603 636.376 643.603Z" fill="#FFDD00"/><path d="M636.375 569.384C633.802 569.384 631.715 567.298 631.715 564.724 631.715 562.151 633.802 560.064 636.375 560.064 638.949 560.064 641.035 562.151 641.035 564.724 641.035 567.298 638.949 569.384 636.375 569.384Z" fill="#FFDD00"/><path d="M636.382 521.845C630.36 521.845 625.477 516.963 625.477 510.94 625.477 504.917 630.36 500.035 636.382 500.035 642.405 500.035 647.287 504.917 647.287 510.94 647.287 516.963 642.405 521.845 636.382 521.845Z" fill="#FFDD00"/><path d="M636.374 461.027C634.221 461.027 632.475 459.281 632.475 457.128 632.475 454.974 634.221 453.229 636.374 453.229 638.528 453.229 640.273 454.974 640.273 457.128 640.273 459.281 638.528 461.027 636.374 461.027Z" fill="#FFDD00"/><path d="M636.376 408.284C633.662 408.284 631.462 406.084 631.462 403.371 631.462 400.657 633.662 398.457 636.376 398.457 639.089 398.457 641.289 400.657 641.289 403.371 641.289 406.084 639.089 408.284 636.376 408.284Z" fill="#FFDD00"/><path d="M636.377 355.673C633.016 355.673 630.291 352.948 630.291 349.586 630.291 346.225 633.016 343.5 636.377 343.5 639.739 343.5 642.464 346.225 642.464 349.586 642.464 352.948 639.739 355.673 636.377 355.673Z" fill="#FFDD00"/><path d="M575.067 622.439C572.913 622.439 571.168 620.693 571.168 618.54 571.168 616.386 572.913 614.641 575.067 614.641 577.22 614.641 578.966 616.386 578.966 618.54 578.966 620.693 577.22 622.439 575.067 622.439Z" fill="#FFDD00"/><path d="M575.065 517.322C571.546 517.322 568.693 514.469 568.693 510.95 568.693 507.431 571.546 504.578 575.065 504.578 578.584 504.578 581.437 507.431 581.437 510.95 581.437 514.469 578.584 517.322 575.065 517.322Z" fill="#FFDD00"/><path d="M575.069 406.586C573.284 406.586 571.836 405.138 571.836 403.353 571.836 401.567 573.284 400.119 575.069 400.119 576.855 400.119 578.303 401.567 578.303 403.353 578.303 405.138 576.855 406.586 575.069 406.586Z" fill="#FFDD00"/><path d="M575.071 361.877C568.278 361.877 562.772 356.37 562.772 349.577 562.772 342.784 568.278 337.277 575.071 337.277 581.864 337.277 587.371 342.784 587.371 349.577 587.371 356.37 581.864 361.877 575.071 361.877Z" fill="#FFDD00"/><path d="M513.733 297.345C512.84 297.345 512.116 296.621 512.116 295.728 512.116 294.835 512.84 294.111 513.733 294.111 514.626 294.111 515.35 294.835 515.35 295.728 515.35 296.621 514.626 297.345 513.733 297.345Z" fill="#FFDD00"/><path d="M452.383 253.297C446.115 253.297 441.034 248.216 441.034 241.948 441.034 235.681 446.115 230.6 452.383 230.6 458.65 230.6 463.731 235.681 463.731 241.948 463.731 248.216 458.65 253.297 452.383 253.297Z" fill="#FFDD00"/><path d="M391.071 458.898C390.091 458.898 389.296 458.103 389.296 457.123 389.296 456.142 390.091 455.348 391.071 455.348 392.052 455.348 392.847 456.142 392.847 457.123 392.847 458.103 392.052 458.898 391.071 458.898Z" fill="#FFDD00"/><path d="M391.071 405.113C390.091 405.113 389.296 404.318 389.296 403.338 389.296 402.357 390.091 401.562 391.071 401.562 392.052 401.562 392.847 402.357 392.847 403.338 392.847 404.318 392.052 405.113 391.071 405.113Z" fill="#FFDD00"/><path d="M391.08 352.013C389.731 352.013 388.639 350.92 388.639 349.572 388.639 348.224 389.731 347.131 391.08 347.131 392.428 347.131 393.521 348.224 393.521 349.572 393.521 350.92 392.428 352.013 391.08 352.013Z" fill="#FFDD00"/><path d="M391.092 305.805C385.542 305.805 381.043 301.306 381.043 295.756 381.043 290.206 385.542 285.707 391.092 285.707 396.642 285.707 401.141 290.206 401.141 295.756 401.141 301.306 396.642 305.805 391.092 305.805Z" fill="#FFDD00"/><path d="M391.099 259.789C381.26 259.789 373.284 251.813 373.284 241.974 373.284 232.135 381.26 224.158 391.099 224.158 400.939 224.158 408.915 232.135 408.915 241.974 408.915 251.813 400.939 259.789 391.099 259.789Z" fill="#FFDD00"/><path d="M329.733 460.829C327.702 460.829 326.056 459.183 326.056 457.152 326.056 455.121 327.702 453.475 329.733 453.475 331.764 453.475 333.41 455.121 333.41 457.152 333.41 459.183 331.764 460.829 329.733 460.829Z" fill="#FFDD00"/><path d="M329.731 423.76C318.457 423.76 309.317 414.62 309.317 403.345 309.317 392.07 318.457 382.93 329.731 382.93 341.006 382.93 350.146 392.07 350.146 403.345 350.146 414.62 341.006 423.76 329.731 423.76Z" fill="#FFDD00"/><path d="M329.738 351.173C328.845 351.173 328.121 350.449 328.121 349.556 328.121 348.663 328.845 347.939 329.738 347.939 330.631 347.939 331.354 348.663 331.354 349.556 331.354 350.449 330.631 351.173 329.738 351.173Z" fill="#FFDD00"/><path d="M329.735 302.821C325.848 302.821 322.698 299.67 322.698 295.784 322.698 291.897 325.848 288.746 329.735 288.746 333.622 288.746 336.772 291.897 336.772 295.784 336.772 299.67 333.622 302.821 329.735 302.821Z" fill="#FFDD00"/><path d="M329.738 256.264C321.824 256.264 315.409 249.849 315.409 241.936 315.409 234.023 321.824 227.607 329.738 227.607 337.651 227.607 344.066 234.023 344.066 241.936 344.066 249.849 337.651 256.264 329.738 256.264Z" fill="#FFDD00"/><path d="M329.748 204.737C320.591 204.737 313.169 197.314 313.169 188.157 313.169 179.001 320.591 171.578 329.748 171.578 338.904 171.578 346.327 179.001 346.327 188.157 346.327 197.314 338.904 204.737 329.748 204.737Z" fill="#FFDD00"/><path d="M268.387 457.267C268.317 457.267 268.259 457.21 268.259 457.139 268.259 457.069 268.317 457.012 268.387 457.012 268.457 457.012 268.515 457.069 268.515 457.139 268.515 457.21 268.457 457.267 268.387 457.267Z" fill="#FFDD00"/><path d="M268.398 405.595C267.155 405.595 266.147 404.588 266.147 403.344 266.147 402.101 267.155 401.094 268.398 401.094 269.641 401.094 270.648 402.101 270.648 403.344 270.648 404.588 269.641 405.595 268.398 405.595Z" fill="#FFDD00"/><path d="M268.41 350.4C267.94 350.4 267.558 350.018 267.558 349.548 267.558 349.077 267.94 348.695 268.41 348.695 268.881 348.695 269.263 349.077 269.263 349.548 269.263 350.018 268.881 350.4 268.41 350.4Z" fill="#FFDD00"/><path d="M268.405 303.143C264.326 303.143 261.019 299.837 261.019 295.757 261.019 291.678 264.326 288.371 268.405 288.371 272.484 288.371 275.791 291.678 275.791 295.757 275.791 299.837 272.484 303.143 268.405 303.143Z" fill="#FFDD00"/><path d="M268.392 254.742C261.336 254.742 255.617 249.022 255.617 241.967 255.617 234.911 261.336 229.191 268.392 229.191 275.447 229.191 281.167 234.911 281.167 241.967 281.167 249.022 275.447 254.742 268.392 254.742Z" fill="#FFDD00"/><path d="M268.396 191.41C266.611 191.41 265.163 189.963 265.163 188.177 265.163 186.391 266.611 184.943 268.396 184.943 270.182 184.943 271.63 186.391 271.63 188.177 271.63 189.963 270.182 191.41 268.396 191.41Z" fill="#FFDD00"/><path d="M207.099 458.222C206.504 458.222 206.021 457.739 206.021 457.144 206.021 456.549 206.504 456.066 207.099 456.066 207.694 456.066 208.177 456.549 208.177 457.144 208.177 457.739 207.694 458.222 207.099 458.222Z" fill="#FFDD00"/><path d="M207.088 410.072C203.377 410.072 200.368 407.063 200.368 403.351 200.368 399.64 203.377 396.631 207.088 396.631 210.8 396.631 213.809 399.64 213.809 403.351 213.809 407.063 210.8 410.072 207.088 410.072Z" fill="#FFDD00"/><path d="M207.089 352.801C205.303 352.801 203.855 351.353 203.855 349.567 203.855 347.782 205.303 346.334 207.089 346.334 208.875 346.334 210.322 347.782 210.322 349.567 210.322 351.353 208.875 352.801 207.089 352.801Z" fill="#FFDD00"/><path d="M207.099 307.123C200.831 307.123 195.75 302.042 195.75 295.774 195.75 289.507 200.831 284.426 207.099 284.426 213.366 284.426 218.447 289.507 218.447 295.774 218.447 302.042 213.366 307.123 207.099 307.123Z" fill="#FFDD00"/><path d="M207.079 251.211C201.984 251.211 197.854 247.081 197.854 241.987 197.854 236.892 201.984 232.762 207.079 232.762 212.174 232.762 216.304 236.892 216.304 241.987 216.304 247.081 212.174 251.211 207.079 251.211Z" fill="#FFDD00"/><path d="M207.087 195.913C202.816 195.913 199.353 192.45 199.353 188.178 199.353 183.906 202.816 180.443 207.087 180.443 211.359 180.443 214.822 183.906 214.822 188.178 214.822 192.45 211.359 195.913 207.087 195.913Z" fill="#FFDD00"/><path d="M145.759 478.22C134.117 478.22 124.678 468.782 124.678 457.139 124.678 445.497 134.117 436.059 145.759 436.059 157.402 436.059 166.84 445.497 166.84 457.139 166.84 468.782 157.402 478.22 145.759 478.22Z" fill="#FFDD00"/><path d="M145.753 414.279C139.731 414.279 134.848 409.396 134.848 403.374 134.848 397.351 139.731 392.469 145.753 392.469 151.776 392.469 156.658 397.351 156.658 403.374 156.658 409.396 151.776 414.279 145.753 414.279Z" fill="#FFDD00"/><path d="M145.754 349.628C145.704 349.628 145.663 349.587 145.663 349.537 145.663 349.486 145.704 349.445 145.754 349.445 145.805 349.445 145.846 349.486 145.846 349.537 145.846 349.587 145.805 349.628 145.754 349.628Z" fill="#FFDD00"/><path d="M145.747 302.124C142.228 302.124 139.376 299.272 139.376 295.753 139.376 292.234 142.228 289.381 145.747 289.381 149.266 289.381 152.119 292.234 152.119 295.753 152.119 299.272 149.266 302.124 145.747 302.124Z" fill="#FFDD00"/><path d="M145.754 248.997C141.867 248.997 138.716 245.846 138.716 241.959 138.716 238.073 141.867 234.922 145.754 234.922 149.64 234.922 152.791 238.073 152.791 241.959 152.791 245.846 149.64 248.997 145.754 248.997Z" fill="#FFDD00"/><path d="M145.746 195.573C141.666 195.573 138.359 192.266 138.359 188.187 138.359 184.108 141.666 180.801 145.746 180.801 149.825 180.801 153.132 184.108 153.132 188.187 153.132 192.266 149.825 195.573 145.746 195.573Z" fill="#FFDD00"/><path d="M84.4137 457.741C84.0937 457.741 83.8342 457.482 83.8342 457.161 83.8342 456.841 84.0937 456.582 84.4137 456.582 84.7337 456.582 84.9932 456.841 84.9932 457.161 84.9932 457.482 84.7337 457.741 84.4137 457.741Z" fill="#FFDD00"/><path d="M84.4107 417.679C76.4973 417.679 70.0822 411.263 70.0822 403.35 70.0822 395.437 76.4973 389.021 84.4107 389.021 92.3242 389.021 98.7393 395.437 98.7393 403.35 98.7393 411.263 92.3242 417.679 84.4107 417.679Z" fill="#FFDD00"/><path d="M84.4043 350.531C83.8638 350.531 83.4257 350.093 83.4257 349.553 83.4257 349.012 83.8638 348.574 84.4043 348.574 84.9447 348.574 85.3828 349.012 85.3828 349.553 85.3828 350.093 84.9447 350.531 84.4043 350.531Z" fill="#FFDD00"/><path d="M84.4104 301.238C81.3816 301.238 78.9262 298.782 78.9262 295.754 78.9262 292.725 81.3816 290.27 84.4104 290.27 87.4392 290.27 89.8945 292.725 89.8945 295.754 89.8945 298.782 87.4392 301.238 84.4104 301.238Z" fill="#FFDD00"/><path d="M84.4035 246.634C81.8299 246.634 79.7436 244.548 79.7436 241.974 79.7436 239.401 81.8299 237.314 84.4035 237.314 86.9771 237.314 89.0635 239.401 89.0635 241.974 89.0635 244.548 86.9771 246.634 84.4035 246.634Z" fill="#FFDD00"/><path d="M84.4049 195.231C80.5182 195.231 77.3674 192.08 77.3674 188.194 77.3674 184.307 80.5182 181.156 84.4049 181.156 88.2916 181.156 91.4424 184.307 91.4424 188.194 91.4424 192.08 88.2916 195.231 84.4049 195.231Z" fill="#FFDD00"/><path d="M23.1128 458.374C22.4475 458.374 21.9082 457.835 21.9082 457.169 21.9082 456.504 22.4475 455.965 23.1128 455.965 23.7781 455.965 24.3174 456.504 24.3174 457.169 24.3174 457.835 23.7781 458.374 23.1128 458.374Z" fill="#FFDD00"/><path d="M23.1008 410.072C19.3892 410.072 16.3804 407.063 16.3804 403.351 16.3804 399.64 19.3892 396.631 23.1008 396.631 26.8124 396.631 29.8213 399.64 29.8213 403.351 29.8213 407.063 26.8124 410.072 23.1008 410.072Z" fill="#FFDD00"/><path d="M23.093 350.402C22.6223 350.402 22.2408 350.02 22.2408 349.55 22.2408 349.079 22.6223 348.697 23.093 348.697 23.5637 348.697 23.9453 349.079 23.9453 349.55 23.9453 350.02 23.5637 350.402 23.093 350.402Z" fill="#FFDD00"/><path d="M23.0989 301.238C20.07 301.238 17.6147 298.782 17.6147 295.754 17.6147 292.725 20.07 290.27 23.0989 290.27 26.1277 290.27 28.583 292.725 28.583 295.754 28.583 298.782 26.1277 301.238 23.0989 301.238Z" fill="#FFDD00"/><path d="M23.0995 250.44C18.425 250.44 14.6355 246.65 14.6355 241.976 14.6355 237.301 18.425 233.512 23.0995 233.512 27.774 233.512 31.5635 237.301 31.5635 241.976 31.5635 246.65 27.774 250.44 23.0995 250.44Z" fill="#FFDD00"/><path d="M23.1076 189.945C22.1272 189.945 21.3324 189.15 21.3324 188.17 21.3324 187.189 22.1272 186.395 23.1076 186.395 24.088 186.395 24.8828 187.189 24.8828 188.17 24.8828 189.15 24.088 189.945 23.1076 189.945Z" fill="#FFDD00"/></g></svg>