<svg width="960" height="336" viewBox="0 0 960 336" xmlns="http://www.w3.org/2000/svg" xmlns:xlink="http://www.w3.org/1999/xlink" fill="none" overflow="hidden"><defs><clipPath id="clip0_2192_4901"><rect x="0" y="0" width="2115" height="673.408" fill="#FFFFFF" transform="matrix(1 0 0 1 0 -337.43)"/></clipPath></defs><g clip-path="url(#clip0_2192_4901)"><path d="M258.747 211.353C262.266 211.353 265.119 208.5 265.119 204.981 265.119 201.462 262.266 198.609 258.747 198.609 255.228 198.609 252.375 201.462 252.375 204.981 252.375 208.5 255.228 211.353 258.747 211.353Z" fill="#FFDD00"/><path d="M320.09 316.433C322.243 316.433 323.989 314.687 323.989 312.534 323.989 310.38 322.243 308.635 320.09 308.635 317.936 308.635 316.19 310.38 316.19 312.534 316.19 314.687 317.936 316.433 320.09 316.433Z" fill="#FFDD00"/><path d="M320.088 263.69C322.802 263.69 325.002 261.491 325.002 258.777 325.002 256.063 322.802 253.863 320.088 253.863 317.375 253.863 315.175 256.063 315.175 258.777 315.175 261.491 317.375 263.69 320.088 263.69Z" fill="#FFDD00"/><path d="M320.086 211.079C323.448 211.079 326.173 208.354 326.173 204.993 326.173 201.631 323.448 198.906 320.086 198.906 316.725 198.906 314 201.631 314 204.993 314 208.354 316.725 211.079 320.086 211.079Z" fill="#FFDD00"/><path d="M381.395 261.992C383.18 261.992 384.628 260.545 384.628 258.759 384.628 256.973 383.18 255.525 381.395 255.525 379.609 255.525 378.161 256.973 378.161 258.759 378.161 260.545 379.609 261.992 381.395 261.992Z" fill="#FFDD00"/><path d="M381.392 217.283C388.185 217.283 393.692 211.776 393.692 204.983 393.692 198.19 388.185 192.684 381.392 192.684 374.6 192.684 369.093 198.19 369.093 204.983 369.093 211.776 374.6 217.283 381.392 217.283Z" fill="#FFDD00"/><path d="M442.731 152.751C443.624 152.751 444.348 152.027 444.348 151.134 444.348 150.241 443.624 149.518 442.731 149.518 441.838 149.518 441.114 150.241 441.114 151.134 441.114 152.027 441.838 152.751 442.731 152.751Z" fill="#FFDD00"/><path d="M504.081 108.703C510.349 108.703 515.43 103.622 515.43 97.3546 515.43 91.0868 510.349 86.0059 504.081 86.0059 497.813 86.0059 492.732 91.0868 492.732 97.3546 492.732 103.622 497.813 108.703 504.081 108.703Z" fill="#FFDD00"/><path d="M565.392 314.304C566.373 314.304 567.168 313.51 567.168 312.529 567.168 311.549 566.373 310.754 565.392 310.754 564.412 310.754 563.617 311.549 563.617 312.529 563.617 313.51 564.412 314.304 565.392 314.304Z" fill="#FFDD00"/><path d="M565.392 260.519C566.373 260.519 567.168 259.724 567.168 258.744 567.168 257.764 566.373 256.969 565.392 256.969 564.412 256.969 563.617 257.764 563.617 258.744 563.617 259.724 564.412 260.519 565.392 260.519Z" fill="#FFDD00"/><path d="M565.384 207.419C566.732 207.419 567.825 206.326 567.825 204.978 567.825 203.63 566.732 202.537 565.384 202.537 564.036 202.537 562.943 203.63 562.943 204.978 562.943 206.326 564.036 207.419 565.384 207.419Z" fill="#FFDD00"/><path d="M565.372 161.211C570.922 161.211 575.421 156.712 575.421 151.162 575.421 145.612 570.922 141.113 565.372 141.113 559.822 141.113 555.323 145.612 555.323 151.162 555.323 156.712 559.822 161.211 565.372 161.211Z" fill="#FFDD00"/><path d="M565.364 115.196C575.204 115.196 583.18 107.219 583.18 97.38 583.18 87.5408 575.204 79.5645 565.364 79.5645 555.525 79.5645 547.549 87.5408 547.549 97.38 547.549 107.219 555.525 115.196 565.364 115.196Z" fill="#FFDD00"/><path d="M626.731 316.235C628.762 316.235 630.408 314.589 630.408 312.558 630.408 310.527 628.762 308.881 626.731 308.881 624.7 308.881 623.054 310.527 623.054 312.558 623.054 314.589 624.7 316.235 626.731 316.235Z" fill="#FFDD00"/><path d="M626.732 279.166C638.007 279.166 647.147 270.026 647.147 258.751 647.147 247.476 638.007 238.336 626.732 238.336 615.457 238.336 606.317 247.476 606.317 258.751 606.317 270.026 615.457 279.166 626.732 279.166Z" fill="#FFDD00"/><path d="M626.726 206.579C627.619 206.579 628.343 205.855 628.343 204.962 628.343 204.07 627.619 203.346 626.726 203.346 625.833 203.346 625.109 204.07 625.109 204.962 625.109 205.855 625.833 206.579 626.726 206.579Z" fill="#FFDD00"/><path d="M626.729 158.227C630.616 158.227 633.766 155.076 633.766 151.19 633.766 147.303 630.616 144.152 626.729 144.152 622.842 144.152 619.691 147.303 619.691 151.19 619.691 155.076 622.842 158.227 626.729 158.227Z" fill="#FFDD00"/><path d="M626.725 111.671C634.638 111.671 641.054 105.256 641.054 97.3422 641.054 89.4288 634.638 83.0137 626.725 83.0137 618.812 83.0137 612.396 89.4288 612.396 97.3422 612.396 105.256 618.812 111.671 626.725 111.671Z" fill="#FFDD00"/><path d="M626.716 60.1429C635.872 60.1429 643.295 52.7201 643.295 43.5636 643.295 34.4072 635.872 26.9844 626.716 26.9844 617.56 26.9844 610.137 34.4072 610.137 43.5636 610.137 52.7201 617.56 60.1429 626.716 60.1429Z" fill="#FFDD00"/><path d="M688.077 312.673C688.147 312.673 688.205 312.616 688.205 312.546 688.205 312.475 688.147 312.418 688.077 312.418 688.006 312.418 687.949 312.475 687.949 312.546 687.949 312.616 688.006 312.673 688.077 312.673Z" fill="#FFDD00"/><path d="M688.066 261.001C689.309 261.001 690.317 259.994 690.317 258.751 690.317 257.508 689.309 256.5 688.066 256.5 686.823 256.5 685.815 257.508 685.815 258.751 685.815 259.994 686.823 261.001 688.066 261.001Z" fill="#FFDD00"/><path d="M688.053 205.806C688.524 205.806 688.906 205.425 688.906 204.954 688.906 204.483 688.524 204.102 688.053 204.102 687.583 204.102 687.201 204.483 687.201 204.954 687.201 205.425 687.583 205.806 688.053 205.806Z" fill="#FFDD00"/><path d="M688.059 158.55C692.138 158.55 695.445 155.243 695.445 151.164 695.445 147.084 692.138 143.777 688.059 143.777 683.98 143.777 680.673 147.084 680.673 151.164 680.673 155.243 683.98 158.55 688.059 158.55Z" fill="#FFDD00"/><path d="M688.072 110.148C695.128 110.148 700.847 104.428 700.847 97.3729 700.847 90.3173 695.128 84.5977 688.072 84.5977 681.017 84.5977 675.297 90.3173 675.297 97.3729 675.297 104.428 681.017 110.148 688.072 110.148Z" fill="#FFDD00"/><path d="M688.067 46.8165C689.853 46.8165 691.301 45.3688 691.301 43.583 691.301 41.7973 689.853 40.3496 688.067 40.3496 686.282 40.3496 684.834 41.7973 684.834 43.583 684.834 45.3688 686.282 46.8165 688.067 46.8165Z" fill="#FFDD00"/><path d="M749.365 313.628C749.96 313.628 750.443 313.146 750.443 312.55 750.443 311.955 749.96 311.473 749.365 311.473 748.77 311.473 748.287 311.955 748.287 312.55 748.287 313.146 748.77 313.628 749.365 313.628Z" fill="#FFDD00"/><path d="M749.376 265.478C753.087 265.478 756.096 262.469 756.096 258.758 756.096 255.046 753.087 252.037 749.376 252.037 745.664 252.037 742.655 255.046 742.655 258.758 742.655 262.469 745.664 265.478 749.376 265.478Z" fill="#FFDD00"/><path d="M749.375 208.207C751.161 208.207 752.608 206.759 752.608 204.974 752.608 203.188 751.161 201.74 749.375 201.74 747.589 201.74 746.142 203.188 746.142 204.974 746.142 206.759 747.589 208.207 749.375 208.207Z" fill="#FFDD00"/><path d="M749.365 162.529C755.633 162.529 760.714 157.448 760.714 151.181 760.714 144.913 755.633 139.832 749.365 139.832 743.098 139.832 738.017 144.913 738.017 151.181 738.017 157.448 743.098 162.529 749.365 162.529Z" fill="#FFDD00"/><path d="M749.385 106.618C754.48 106.618 758.61 102.487 758.61 97.3928 758.61 92.298 754.48 88.168 749.385 88.168 744.29 88.168 740.16 92.298 740.16 97.3928 740.16 102.487 744.29 106.618 749.385 106.618Z" fill="#FFDD00"/><path d="M749.377 51.3194C753.649 51.3194 757.112 47.8563 757.112 43.5845 757.112 39.3126 753.649 35.8496 749.377 35.8496 745.106 35.8496 741.643 39.3126 741.643 43.5845 741.643 47.8563 745.106 51.3194 749.377 51.3194Z" fill="#FFDD00"/><path d="M810.705 333.626C822.347 333.626 831.785 324.188 831.785 312.546 831.785 300.903 822.347 291.465 810.705 291.465 799.062 291.465 789.624 300.903 789.624 312.546 789.624 324.188 799.062 333.626 810.705 333.626Z" fill="#FFDD00"/><path d="M810.711 269.685C816.733 269.685 821.615 264.803 821.615 258.78 821.615 252.757 816.733 247.875 810.711 247.875 804.688 247.875 799.806 252.757 799.806 258.78 799.806 264.803 804.688 269.685 810.711 269.685Z" fill="#FFDD00"/><path d="M810.709 205.034C810.76 205.034 810.801 204.993 810.801 204.943 810.801 204.892 810.76 204.852 810.709 204.852 810.659 204.852 810.618 204.892 810.618 204.943 810.618 204.993 810.659 205.034 810.709 205.034Z" fill="#FFDD00"/><path d="M810.717 157.531C814.236 157.531 817.089 154.678 817.089 151.159 817.089 147.64 814.236 144.787 810.717 144.787 807.198 144.787 804.346 147.64 804.346 151.159 804.346 154.678 807.198 157.531 810.717 157.531Z" fill="#FFDD00"/><path d="M810.711 104.403C814.598 104.403 817.749 101.252 817.749 97.3656 817.749 93.4789 814.598 90.3281 810.711 90.3281 806.825 90.3281 803.674 93.4789 803.674 97.3656 803.674 101.252 806.825 104.403 810.711 104.403Z" fill="#FFDD00"/><path d="M810.718 50.9794C814.797 50.9794 818.104 47.6725 818.104 43.5932 818.104 39.5139 814.797 36.207 810.718 36.207 806.639 36.207 803.332 39.5139 803.332 43.5932 803.332 47.6725 806.639 50.9794 810.718 50.9794Z" fill="#FFDD00"/><path d="M872.05 313.147C872.37 313.147 872.63 312.888 872.63 312.568 872.63 312.248 872.37 311.988 872.05 311.988 871.73 311.988 871.471 312.248 871.471 312.568 871.471 312.888 871.73 313.147 872.05 313.147Z" fill="#FFDD00"/><path d="M872.053 273.085C879.967 273.085 886.382 266.67 886.382 258.756 886.382 250.843 879.967 244.428 872.053 244.428 864.14 244.428 857.725 250.843 857.725 258.756 857.725 266.67 864.14 273.085 872.053 273.085Z" fill="#FFDD00"/><path d="M872.06 205.938C872.6 205.938 873.038 205.499 873.038 204.959 873.038 204.419 872.6 203.98 872.06 203.98 871.519 203.98 871.081 204.419 871.081 204.959 871.081 205.499 871.519 205.938 872.06 205.938Z" fill="#FFDD00"/><path d="M872.054 156.644C875.083 156.644 877.539 154.189 877.539 151.16 877.539 148.131 875.083 145.676 872.054 145.676 869.026 145.676 866.57 148.131 866.57 151.16 866.57 154.189 869.026 156.644 872.054 156.644Z" fill="#FFDD00"/><path d="M872.06 102.041C874.634 102.041 876.72 99.9543 876.72 97.3806 876.72 94.807 874.634 92.7207 872.06 92.7207 869.487 92.7207 867.4 94.807 867.4 97.3806 867.4 99.9543 869.487 102.041 872.06 102.041Z" fill="#FFDD00"/><path d="M872.059 50.6374C875.946 50.6374 879.096 47.4867 879.096 43.6 879.096 39.7133 875.946 36.5625 872.059 36.5625 868.172 36.5625 865.021 39.7133 865.021 43.6 865.021 47.4867 868.172 50.6374 872.059 50.6374Z" fill="#FFDD00"/><path d="M933.351 313.78C934.016 313.78 934.556 313.241 934.556 312.576 934.556 311.91 934.016 311.371 933.351 311.371 932.686 311.371 932.146 311.91 932.146 312.576 932.146 313.241 932.686 313.78 933.351 313.78Z" fill="#FFDD00"/><path d="M933.363 265.478C937.075 265.478 940.084 262.469 940.084 258.758 940.084 255.046 937.075 252.037 933.363 252.037 929.651 252.037 926.643 255.046 926.643 258.758 926.643 262.469 929.651 265.478 933.363 265.478Z" fill="#FFDD00"/><path d="M933.371 205.808C933.842 205.808 934.223 205.426 934.223 204.956 934.223 204.485 933.842 204.104 933.371 204.104 932.9 204.104 932.519 204.485 932.519 204.956 932.519 205.426 932.9 205.808 933.371 205.808Z" fill="#FFDD00"/><path d="M933.365 156.644C936.394 156.644 938.849 154.189 938.849 151.16 938.849 148.131 936.394 145.676 933.365 145.676 930.336 145.676 927.881 148.131 927.881 151.16 927.881 154.189 930.336 156.644 933.365 156.644Z" fill="#FFDD00"/><path d="M933.364 105.846C938.039 105.846 941.828 102.056 941.828 97.3819 941.828 92.7074 938.039 88.918 933.364 88.918 928.69 88.918 924.9 92.7074 924.9 97.3819 924.9 102.056 928.69 105.846 933.364 105.846Z" fill="#FFDD00"/><path d="M933.357 45.3512C934.338 45.3512 935.132 44.5564 935.132 43.576 935.132 42.5956 934.338 41.8008 933.357 41.8008 932.377 41.8008 931.582 42.5956 931.582 43.576 931.582 44.5564 932.377 45.3512 933.357 45.3512Z" fill="#FFDD00"/></g></svg>